<svg preserveAspectRatio="none" overflow="visible" style="display: block;" width="21.3333" height="21.3333" viewBox="0 0 21.3333 21.3333" fill="none" xmlns="http://www.w3.org/2000/svg">
<g id="live area">
<path id="Vector" fill-rule="evenodd" clip-rule="evenodd" d="M9 0.666667C13.6023 0.666667 17.3333 4.39772 17.3333 9C17.3333 10.9407 16.6671 12.7242 15.5547 14.1406L20.3737 18.9596C20.7641 19.3502 20.7642 19.9832 20.3737 20.3737C19.9832 20.7642 19.3502 20.7641 18.9596 20.3737L14.1406 15.5547C12.7242 16.6671 10.9407 17.3333 9 17.3333C4.39772 17.3333 0.666667 13.6023 0.666667 9C0.666667 4.39772 4.39772 0.666667 9 0.666667ZM9 2.66667C5.50229 2.66667 2.66667 5.50229 2.66667 9C2.66667 12.4977 5.50229 15.3333 9 15.3333C12.4977 15.3333 15.3333 12.4977 15.3333 9C15.3333 5.50229 12.4977 2.66667 9 2.66667Z" fill="#0A0A0A"/>
</g>
</svg>
