<svg preserveAspectRatio="none" overflow="visible" style="display: block;" width="17.7778" height="17.7778" viewBox="0 0 17.7778 17.7778" fill="none" xmlns="http://www.w3.org/2000/svg">
<g id="live area" clip-path="url(#clip0_0_664)">
<path id="Vector" d="M13.7572 11.158C14.0826 10.8327 14.6102 10.8328 14.9356 11.158L17.5343 13.7567C17.8596 14.0822 17.8596 14.6097 17.5343 14.9351L14.9356 17.5339C14.6102 17.8591 14.0826 17.8591 13.7572 17.5339C13.4321 17.2085 13.432 16.6808 13.7572 16.3555L14.9334 15.1793H11.7477C11.2876 15.1791 10.9143 14.8061 10.9143 14.3459C10.9144 13.8859 11.2877 13.5128 11.7477 13.5126H14.9334L13.7572 12.3364C13.432 12.0109 13.4319 11.4834 13.7572 11.158ZM8.36984 0.000228882C12.992 0.000228882 16.739 3.7474 16.739 8.36937C16.739 8.63066 16.723 8.88166 16.7021 9.11698C16.6612 9.57514 16.2564 9.91384 15.7982 9.87328C15.3399 9.83256 15.0014 9.42773 15.0419 8.96941C15.0605 8.76007 15.0723 8.56273 15.0723 8.36937C15.0723 4.66785 12.0715 1.6669 8.36984 1.6669C4.66815 1.66691 1.66738 4.66786 1.66736 8.36937C1.66736 12.0709 4.66814 15.0718 8.36984 15.0718C8.56084 15.0718 8.75575 15.0599 8.96337 15.0415C9.42177 15.0008 9.82652 15.3394 9.86724 15.7978C9.90789 16.2562 9.56938 16.661 9.11094 16.7016C8.87809 16.7223 8.62931 16.7385 8.36984 16.7385C3.74764 16.7385 0.00069809 12.9913 0.00069809 8.36937C0.000717016 3.74742 3.74765 0.000247807 8.36984 0.000228882ZM8.36984 3.63847C8.82996 3.6386 9.20317 4.01164 9.20317 4.4718V4.67796H10.1884C10.6486 4.67796 11.0217 5.05112 11.0217 5.5113C11.0216 5.97138 10.6485 6.34463 10.1884 6.34463H7.71988C7.391 6.34472 7.12424 6.61144 7.12418 6.94033C7.12436 7.26944 7.39139 7.53595 7.71988 7.53604H9.0198C10.269 7.53623 11.2819 8.54926 11.2822 9.79841C11.282 10.9858 10.3666 11.9585 9.20317 12.0521V12.268C9.20271 12.7278 8.82968 13.1012 8.36984 13.1014C7.90997 13.1013 7.53697 12.7278 7.53651 12.268V12.0608H6.55018C6.09032 12.0605 5.71703 11.6873 5.71684 11.2274C5.71713 10.7676 6.09039 10.3944 6.55018 10.3941H9.0198C9.34844 10.3939 9.61532 10.1272 9.6155 9.79841C9.61525 9.46973 9.34848 9.20289 9.0198 9.2027H7.71988C6.47028 9.20261 5.4577 8.18928 5.45751 6.94033C5.45757 5.75273 6.37295 4.78011 7.53651 4.68664V4.4718C7.53651 4.01162 7.90968 3.63856 8.36984 3.63847Z" fill="#0A0A0A"/>
</g>
<defs>
<clipPath id="clip0_0_664">
<rect width="17.7778" height="17.7778" fill="white"/>
</clipPath>
</defs>
</svg>
